<svg width="1440" height="699" viewBox="0 0 1440 699" fill="none" xmlns="http://www.w3.org/2000/svg">
<g clip-path="url(#clip0_575_240)">
<rect width="1440" height="699" fill="white"/>
<g clip-path="url(#clip1_575_240)">
<rect width="1448" height="1024" rx="50" fill="white"/>
<path fill-rule="evenodd" clip-rule="evenodd" d="M1318.3 -226.583C1089.33 -195.628 1065.21 57.5063 880.425 115.128C779.274 146.671 567.735 182.484 687.276 507.174C765.263 716.462 990.673 684.051 1163.83 488.911C1217.98 440.198 1269.97 426.96 1331.95 427.663C1393.93 428.365 1500.21 501.712 1637.86 469.097C2052.12 370.949 2175.79 -342.512 1318.3 -226.583Z" fill="url(#paint0_linear_575_240)"/>
<path d="M693.632 75.8259H679.808V67.8259H657.984V55.4099L675.136 30.5139H693.568V55.9219H699.712V67.8259H693.632V75.8259ZM679.744 44.4659L672.192 55.9219H680V44.4659H679.744ZM723.213 77.1059C720.439 77.1059 718.007 76.7433 715.917 76.0179C713.826 75.2926 712.034 74.3113 710.541 73.0739C709.047 71.8366 707.789 70.4073 706.765 68.7859C705.783 67.1646 704.994 65.4579 704.397 63.6659C703.842 61.8739 703.437 60.0606 703.181 58.2259C702.967 56.3913 702.861 54.6206 702.861 52.9139C702.861 51.2499 702.967 49.5006 703.181 47.6659C703.437 45.8313 703.842 44.0393 704.397 42.2899C704.994 40.5406 705.783 38.8766 706.765 37.2979C707.789 35.7193 709.047 34.3326 710.541 33.1379C712.034 31.9433 713.826 31.0046 715.917 30.3219C718.007 29.5966 720.439 29.2339 723.213 29.2339C727.394 29.2339 730.807 30.0019 733.453 31.5379C736.098 33.0313 738.167 34.9513 739.661 37.2979C741.154 39.6019 742.178 42.1619 742.733 44.9779C743.287 47.7513 743.565 50.3966 743.565 52.9139C743.565 54.5779 743.437 56.3486 743.181 58.2259C742.967 60.0606 742.562 61.8739 741.965 63.6659C741.41 65.4579 740.642 67.1646 739.661 68.7859C738.679 70.4073 737.421 71.8366 735.885 73.0739C734.391 74.3113 732.599 75.2926 730.509 76.0179C728.418 76.7433 725.986 77.1059 723.213 77.1059ZM723.213 42.3539C722.274 42.3539 721.506 42.6739 720.909 43.3139C720.311 43.9539 719.842 44.7859 719.501 45.8099C719.159 46.8339 718.925 47.9859 718.797 49.2659C718.669 50.5033 718.605 51.7193 718.605 52.9139C718.605 54.1513 718.669 55.4313 718.797 56.7539C718.925 58.0339 719.159 59.2073 719.501 60.2739C719.842 61.3406 720.311 62.2153 720.909 62.8979C721.506 63.5379 722.274 63.8579 723.213 63.8579C724.151 63.8579 724.919 63.5379 725.517 62.8979C726.157 62.2153 726.626 61.3406 726.925 60.2739C727.266 59.2073 727.501 58.0339 727.629 56.7539C727.757 55.4313 727.821 54.1513 727.821 52.9139C727.821 51.7193 727.757 50.5033 727.629 49.2659C727.501 47.9859 727.266 46.8339 726.925 45.8099C726.626 44.7859 726.157 43.9539 725.517 43.3139C724.919 42.6739 724.151 42.3539 723.213 42.3539ZM783.257 75.8259H769.433V67.8259H747.609V55.4099L764.761 30.5139H783.193V55.9219H789.337V67.8259H783.257V75.8259ZM769.369 44.4659L761.817 55.9219H769.625V44.4659H769.369Z" fill="#323232"/>
<path d="M575.344 120.282H572.368L572.944 119.802V127.354L572.496 126.81L576.464 127.45V128.826H567.568V127.45L570.8 126.778L570.32 127.354V107.994L570.864 108.602L567.568 108.026V106.65L573.008 106.49H576.624C578.267 106.49 579.621 106.767 580.688 107.322C581.755 107.877 582.555 108.645 583.088 109.626C583.621 110.607 583.888 111.749 583.888 113.05C583.888 114.479 583.568 115.738 582.928 116.826C582.288 117.914 581.328 118.767 580.048 119.386C578.789 119.983 577.221 120.282 575.344 120.282ZM576.24 108.442H572.464L572.944 107.962V118.81L572.368 118.33H575.344C577.221 118.33 578.661 117.861 579.664 116.922C580.688 115.983 581.2 114.714 581.2 113.114C581.2 111.663 580.773 110.522 579.92 109.69C579.088 108.858 577.861 108.442 576.24 108.442ZM598.618 127.386L598.202 126.81L601.146 127.386V128.794L596.666 128.986L596.282 125.914L596.506 126.01C595.567 127.034 594.554 127.813 593.466 128.346C592.378 128.858 591.322 129.114 590.298 129.114C589.061 129.114 588.015 128.719 587.162 127.93C586.309 127.141 585.882 125.946 585.882 124.346C585.882 123.087 586.149 122.127 586.682 121.466C587.215 120.783 587.951 120.303 588.89 120.026C589.829 119.749 590.917 119.61 592.154 119.61H596.346L596.058 119.93V116.858C596.058 115.685 595.749 114.853 595.13 114.362C594.511 113.85 593.658 113.594 592.57 113.594C591.994 113.594 591.375 113.658 590.714 113.786C590.074 113.893 589.391 114.074 588.666 114.33L589.05 113.914L588.73 116.826H587.034L586.778 112.858C587.994 112.453 589.135 112.154 590.202 111.962C591.269 111.749 592.25 111.642 593.146 111.642C594.853 111.642 596.186 112.026 597.146 112.794C598.127 113.541 598.618 114.746 598.618 116.41V127.386ZM588.474 124.122C588.474 125.167 588.719 125.935 589.21 126.426C589.722 126.917 590.362 127.162 591.13 127.162C591.877 127.162 592.698 126.938 593.594 126.49C594.511 126.021 595.397 125.391 596.25 124.602L596.058 125.274V120.986L596.346 121.274H592.538C591.023 121.274 589.967 121.509 589.37 121.978C588.773 122.426 588.474 123.141 588.474 124.122ZM590.938 108.986L590.01 107.674L595.834 103.098L597.274 105.05L590.938 108.986ZM610.229 136.474C607.733 136.474 605.867 136.111 604.629 135.386C603.392 134.661 602.773 133.615 602.773 132.25C602.773 131.29 603.093 130.437 603.733 129.69C604.373 128.943 605.312 128.293 606.549 127.738L606.581 128.25C605.899 128.207 605.376 128.069 605.013 127.834C604.651 127.578 604.469 127.226 604.469 126.778C604.469 126.607 604.491 126.437 604.533 126.266C604.576 126.095 604.651 125.861 604.757 125.562C604.885 125.242 605.067 124.826 605.301 124.314C605.557 123.781 605.877 123.087 606.261 122.234L606.325 122.682C605.408 122.191 604.704 121.53 604.213 120.698C603.723 119.845 603.477 118.842 603.477 117.69C603.477 115.834 604.085 114.362 605.301 113.274C606.539 112.186 608.235 111.642 610.389 111.642C611.84 111.642 613.088 111.898 614.133 112.41L613.429 112.25L618.453 112.026L618.485 113.562L615.509 114.138L615.733 113.754C616.181 114.181 616.523 114.703 616.757 115.322C616.992 115.941 617.109 116.645 617.109 117.434C617.109 119.311 616.48 120.794 615.221 121.882C613.963 122.97 612.288 123.514 610.197 123.514C609.003 123.514 607.904 123.311 606.901 122.906L607.477 122.618L606.645 126.81L606.101 126.49H612.373C614.421 126.49 615.979 126.895 617.045 127.706C618.112 128.495 618.645 129.637 618.645 131.13C618.645 132.858 617.931 134.181 616.501 135.098C615.093 136.015 613.003 136.474 610.229 136.474ZM610.453 134.522C612.395 134.522 613.835 134.255 614.773 133.722C615.712 133.189 616.181 132.389 616.181 131.322C616.181 130.383 615.829 129.669 615.125 129.178C614.421 128.709 613.365 128.474 611.957 128.474H606.869L607.605 128.314C605.899 129.381 605.045 130.533 605.045 131.77C605.045 132.687 605.483 133.37 606.357 133.818C607.253 134.287 608.619 134.522 610.453 134.522ZM610.197 121.722C611.563 121.722 612.629 121.359 613.397 120.634C614.165 119.887 614.549 118.842 614.549 117.498C614.549 116.154 614.187 115.141 613.461 114.458C612.736 113.775 611.701 113.434 610.357 113.434C608.992 113.434 607.936 113.797 607.189 114.522C606.443 115.226 606.069 116.261 606.069 117.626C606.069 118.949 606.421 119.962 607.125 120.666C607.851 121.37 608.875 121.722 610.197 121.722ZM625.522 127.194L625.234 126.842L628.018 127.45V128.826H620.466V127.45L623.25 126.842L622.962 127.194V113.69L623.218 113.978L620.466 113.402V112.026L625.522 111.834V127.194ZM624.05 108.378C623.559 108.378 623.154 108.218 622.834 107.898C622.514 107.578 622.354 107.141 622.354 106.586C622.354 106.01 622.514 105.573 622.834 105.274C623.175 104.954 623.591 104.794 624.082 104.794C624.594 104.794 625.01 104.943 625.33 105.242C625.65 105.541 625.81 105.989 625.81 106.586C625.81 107.162 625.639 107.61 625.298 107.93C624.957 108.229 624.541 108.378 624.05 108.378ZM629.997 128.826V127.45L632.877 126.81L632.493 127.29V113.53L632.877 114.01L629.997 113.402V112.026L634.477 111.802L634.829 114.938L634.477 114.81C635.544 113.722 636.653 112.922 637.805 112.41C638.979 111.898 640.088 111.642 641.133 111.642C642.541 111.642 643.704 112.079 644.621 112.954C645.56 113.807 646.019 115.141 645.997 116.954V127.29L645.677 126.842L648.493 127.45V128.826H641.037V127.45L643.821 126.842L643.437 127.322V117.498C643.437 116.175 643.139 115.205 642.541 114.586C641.944 113.967 641.144 113.658 640.141 113.658C639.352 113.658 638.488 113.871 637.549 114.298C636.632 114.725 635.725 115.386 634.829 116.282L635.053 115.77V127.322L634.733 126.874L637.453 127.45V128.826H629.997ZM663.399 127.386L662.983 126.81L665.927 127.386V128.794L661.447 128.986L661.063 125.914L661.287 126.01C660.349 127.034 659.335 127.813 658.247 128.346C657.159 128.858 656.103 129.114 655.079 129.114C653.842 129.114 652.797 128.719 651.943 127.93C651.09 127.141 650.663 125.946 650.663 124.346C650.663 123.087 650.93 122.127 651.463 121.466C651.997 120.783 652.733 120.303 653.671 120.026C654.61 119.749 655.698 119.61 656.935 119.61H661.127L660.839 119.93V116.858C660.839 115.685 660.53 114.853 659.911 114.362C659.293 113.85 658.439 113.594 657.351 113.594C656.775 113.594 656.157 113.658 655.495 113.786C654.855 113.893 654.173 114.074 653.447 114.33L653.831 113.914L653.511 116.826H651.815L651.559 112.858C652.775 112.453 653.917 112.154 654.983 111.962C656.05 111.749 657.031 111.642 657.927 111.642C659.634 111.642 660.967 112.026 661.927 112.794C662.909 113.541 663.399 114.746 663.399 116.41V127.386ZM653.255 124.122C653.255 125.167 653.501 125.935 653.991 126.426C654.503 126.917 655.143 127.162 655.911 127.162C656.658 127.162 657.479 126.938 658.375 126.49C659.293 126.021 660.178 125.391 661.031 124.602L660.839 125.274V120.986L661.127 121.274H657.319C655.805 121.274 654.749 121.509 654.151 121.978C653.554 122.426 653.255 123.141 653.255 124.122ZM674.154 128.826V127.45L677.034 126.81L676.65 127.29V113.53L677.034 114.01L674.154 113.402V112.026L678.634 111.802L678.986 114.938L678.634 114.81C679.7 113.722 680.81 112.922 681.962 112.41C683.135 111.898 684.244 111.642 685.29 111.642C686.698 111.642 687.86 112.079 688.778 112.954C689.716 113.807 690.175 115.141 690.154 116.954V127.29L689.833 126.842L692.65 127.45V128.826H685.194V127.45L687.978 126.842L687.594 127.322V117.498C687.594 116.175 687.295 115.205 686.698 114.586C686.1 113.967 685.3 113.658 684.298 113.658C683.508 113.658 682.644 113.871 681.706 114.298C680.788 114.725 679.882 115.386 678.986 116.282L679.21 115.77V127.322L678.89 126.874L681.61 127.45V128.826H674.154ZM707.556 127.386L707.14 126.81L710.083 127.386V128.794L705.604 128.986L705.22 125.914L705.444 126.01C704.505 127.034 703.492 127.813 702.404 128.346C701.316 128.858 700.26 129.114 699.236 129.114C697.998 129.114 696.953 128.719 696.1 127.93C695.246 127.141 694.82 125.946 694.82 124.346C694.82 123.087 695.086 122.127 695.62 121.466C696.153 120.783 696.889 120.303 697.828 120.026C698.766 119.749 699.854 119.61 701.092 119.61H705.284L704.996 119.93V116.858C704.996 115.685 704.686 114.853 704.068 114.362C703.449 113.85 702.596 113.594 701.508 113.594C700.932 113.594 700.313 113.658 699.652 113.786C699.012 113.893 698.329 114.074 697.604 114.33L697.988 113.914L697.668 116.826H695.972L695.716 112.858C696.932 112.453 698.073 112.154 699.14 111.962C700.206 111.749 701.188 111.642 702.084 111.642C703.79 111.642 705.124 112.026 706.084 112.794C707.065 113.541 707.556 114.746 707.556 116.41V127.386ZM697.411 124.122C697.411 125.167 697.657 125.935 698.148 126.426C698.66 126.917 699.3 127.162 700.068 127.162C700.814 127.162 701.636 126.938 702.532 126.49C703.449 126.021 704.334 125.391 705.188 124.602L704.996 125.274V120.986L705.284 121.274H701.476C699.961 121.274 698.905 121.509 698.308 121.978C697.71 122.426 697.411 123.141 697.411 124.122ZM704.004 108.058C703.428 108.058 702.894 107.93 702.404 107.674C701.934 107.397 701.476 107.13 701.028 106.874C700.58 106.597 700.11 106.458 699.62 106.458C699.236 106.458 698.884 106.586 698.564 106.842C698.244 107.077 697.934 107.461 697.636 107.994L696.42 107.482C696.804 106.458 697.252 105.711 697.764 105.242C698.297 104.751 698.894 104.506 699.556 104.506C700.132 104.506 700.654 104.645 701.124 104.922C701.614 105.178 702.084 105.445 702.532 105.722C703.001 105.978 703.47 106.106 703.94 106.106C704.324 106.106 704.676 105.978 704.996 105.722C705.337 105.466 705.657 105.071 705.956 104.538L707.14 105.05C706.756 106.074 706.297 106.831 705.764 107.322C705.252 107.813 704.665 108.058 704.004 108.058ZM720.127 111.642C722.473 111.642 724.308 112.378 725.631 113.85C726.975 115.322 727.647 117.402 727.647 120.09C727.647 121.903 727.316 123.493 726.655 124.858C726.015 126.202 725.097 127.247 723.903 127.994C722.708 128.741 721.268 129.114 719.583 129.114C717.279 129.114 715.476 128.399 714.175 126.97C712.873 125.519 712.223 123.439 712.223 120.73C712.223 118.853 712.532 117.242 713.151 115.898C713.791 114.533 714.697 113.487 715.871 112.762C717.065 112.015 718.484 111.642 720.127 111.642ZM719.999 113.53C718.356 113.53 717.097 114.149 716.223 115.386C715.348 116.623 714.911 118.362 714.911 120.602C714.911 122.799 715.327 124.453 716.159 125.562C716.991 126.671 718.185 127.226 719.743 127.226C720.873 127.226 721.823 126.949 722.591 126.394C723.38 125.818 723.967 125.007 724.351 123.962C724.756 122.917 724.959 121.669 724.959 120.218C724.959 118.042 724.521 116.389 723.647 115.258C722.793 114.106 721.577 113.53 719.999 113.53ZM744.363 129.114C742.934 129.114 741.665 128.794 740.555 128.154C739.467 127.493 738.614 126.533 737.995 125.274C737.377 124.015 737.067 122.479 737.067 120.666C737.067 118.81 737.387 117.21 738.027 115.866C738.667 114.522 739.574 113.487 740.747 112.762C741.921 112.015 743.297 111.642 744.875 111.642C746.369 111.642 747.595 111.962 748.555 112.602C749.537 113.221 750.262 114.085 750.731 115.194C751.222 116.303 751.467 117.573 751.467 119.002C751.467 119.237 751.457 119.471 751.435 119.706C751.414 119.941 751.382 120.229 751.339 120.57H739.019V118.746H749.099L748.811 118.938C748.833 117.978 748.715 117.093 748.459 116.282C748.203 115.471 747.766 114.821 747.147 114.33C746.529 113.839 745.707 113.594 744.683 113.594C743.595 113.594 742.678 113.882 741.931 114.458C741.185 115.034 740.63 115.823 740.267 116.826C739.905 117.829 739.723 118.991 739.723 120.314C739.723 121.722 739.926 122.938 740.331 123.962C740.737 124.965 741.323 125.743 742.091 126.298C742.881 126.853 743.841 127.13 744.971 127.13C745.761 127.13 746.625 126.981 747.563 126.682C748.502 126.362 749.473 125.882 750.475 125.242L751.403 126.682C750.209 127.493 749.014 128.101 747.819 128.506C746.625 128.911 745.473 129.114 744.363 129.114ZM754.247 128.826V127.45L757.127 126.81L756.743 127.29V113.53L757.127 114.01L754.247 113.402V112.026L758.727 111.802L759.079 114.938L758.727 114.81C759.794 113.722 760.903 112.922 762.055 112.41C763.229 111.898 764.338 111.642 765.383 111.642C766.791 111.642 767.954 112.079 768.871 112.954C769.81 113.807 770.269 115.141 770.247 116.954V127.29L769.927 126.842L772.743 127.45V128.826H765.287V127.45L768.071 126.842L767.687 127.322V117.498C767.687 116.175 767.389 115.205 766.791 114.586C766.194 113.967 765.394 113.658 764.391 113.658C763.602 113.658 762.738 113.871 761.799 114.298C760.882 114.725 759.975 115.386 759.079 116.282L759.303 115.77V127.322L758.983 126.874L761.703 127.45V128.826H754.247ZM781.985 129.114C780.62 129.114 779.383 128.783 778.273 128.122C777.185 127.439 776.321 126.458 775.681 125.178C775.063 123.898 774.753 122.362 774.753 120.57C774.753 119.013 774.967 117.679 775.393 116.57C775.841 115.439 776.439 114.511 777.185 113.786C777.932 113.061 778.785 112.527 779.745 112.186C780.727 111.823 781.74 111.642 782.785 111.642C783.639 111.642 784.545 111.759 785.505 111.994C786.487 112.229 787.34 112.549 788.065 112.954L787.937 116.954H786.209L785.793 113.946L786.049 114.234C785.516 113.978 784.951 113.797 784.353 113.69C783.756 113.583 783.223 113.53 782.753 113.53C781.644 113.53 780.684 113.818 779.873 114.394C779.084 114.949 778.476 115.738 778.049 116.762C777.623 117.786 777.409 119.002 777.409 120.41C777.409 121.861 777.633 123.087 778.081 124.09C778.529 125.093 779.137 125.85 779.905 126.362C780.695 126.874 781.58 127.13 782.561 127.13C783.329 127.13 784.14 126.97 784.993 126.65C785.847 126.33 786.732 125.85 787.649 125.21L788.545 126.618C787.436 127.471 786.327 128.101 785.217 128.506C784.108 128.911 783.031 129.114 781.985 129.114ZM798.533 111.642C800.88 111.642 802.714 112.378 804.037 113.85C805.381 115.322 806.053 117.402 806.053 120.09C806.053 121.903 805.722 123.493 805.061 124.858C804.421 126.202 803.504 127.247 802.309 127.994C801.114 128.741 799.674 129.114 797.989 129.114C795.685 129.114 793.882 128.399 792.581 126.97C791.28 125.519 790.629 123.439 790.629 120.73C790.629 118.853 790.938 117.242 791.557 115.898C792.197 114.533 793.104 113.487 794.277 112.762C795.472 112.015 796.89 111.642 798.533 111.642ZM798.405 113.53C796.762 113.53 795.504 114.149 794.629 115.386C793.754 116.623 793.317 118.362 793.317 120.602C793.317 122.799 793.733 124.453 794.565 125.562C795.397 126.671 796.592 127.226 798.149 127.226C799.28 127.226 800.229 126.949 800.997 126.394C801.786 125.818 802.373 125.007 802.757 123.962C803.162 122.917 803.365 121.669 803.365 120.218C803.365 118.042 802.928 116.389 802.053 115.258C801.2 114.106 799.984 113.53 798.405 113.53ZM808.747 128.826V127.45L811.627 126.81L811.243 127.29V113.53L811.627 114.01L808.747 113.402V112.026L813.227 111.802L813.579 114.938L813.227 114.81C814.294 113.722 815.403 112.922 816.555 112.41C817.729 111.898 818.838 111.642 819.883 111.642C821.291 111.642 822.454 112.079 823.371 112.954C824.31 113.807 824.769 115.141 824.747 116.954V127.29L824.427 126.842L827.243 127.45V128.826H819.787V127.45L822.571 126.842L822.187 127.322V117.498C822.187 116.175 821.889 115.205 821.291 114.586C820.694 113.967 819.894 113.658 818.891 113.658C818.102 113.658 817.238 113.871 816.299 114.298C815.382 114.725 814.475 115.386 813.579 116.282L813.803 115.77V127.322L813.483 126.874L816.203 127.45V128.826H808.747ZM834.661 129.114C833.552 129.114 832.677 128.773 832.037 128.09C831.397 127.386 831.077 126.33 831.077 124.922V113.306L831.493 113.722H828.197V112.314L831.525 111.834L831.077 112.346V108.122L833.637 107.706V112.346L833.285 111.93H838.309L838.213 113.722H833.285L833.637 113.306V124.57C833.637 125.466 833.808 126.117 834.149 126.522C834.512 126.927 835.013 127.13 835.653 127.13C836.037 127.13 836.453 127.066 836.901 126.938C837.349 126.81 837.829 126.629 838.341 126.394L838.885 127.866C837.371 128.698 835.963 129.114 834.661 129.114ZM840.591 128.826V127.45L843.407 126.842L843.087 127.322V113.53L843.439 114.01L840.591 113.402V112.026L845.071 111.802L845.423 114.938L845.071 114.81C846.031 113.807 846.97 113.029 847.887 112.474C848.804 111.919 849.807 111.642 850.895 111.642C851.578 111.642 852.292 111.749 853.039 111.962L852.847 116.634H851.247L850.863 113.274L851.151 113.85C851.002 113.807 850.842 113.775 850.671 113.754C850.5 113.733 850.33 113.722 850.159 113.722C849.306 113.722 848.474 113.978 847.663 114.49C846.874 115.002 846.116 115.663 845.391 116.474L845.647 115.706V127.322L845.263 126.842L848.751 127.45V128.826H840.591ZM866.868 127.386L866.452 126.81L869.396 127.386V128.794L864.916 128.986L864.532 125.914L864.756 126.01C863.817 127.034 862.804 127.813 861.716 128.346C860.628 128.858 859.572 129.114 858.548 129.114C857.311 129.114 856.265 128.719 855.412 127.93C854.559 127.141 854.132 125.946 854.132 124.346C854.132 123.087 854.399 122.127 854.932 121.466C855.465 120.783 856.201 120.303 857.14 120.026C858.079 119.749 859.167 119.61 860.404 119.61H864.596L864.308 119.93V116.858C864.308 115.685 863.999 114.853 863.38 114.362C862.761 113.85 861.908 113.594 860.82 113.594C860.244 113.594 859.625 113.658 858.964 113.786C858.324 113.893 857.641 114.074 856.916 114.33L857.3 113.914L856.98 116.826H855.284L855.028 112.858C856.244 112.453 857.385 112.154 858.452 111.962C859.519 111.749 860.5 111.642 861.396 111.642C863.103 111.642 864.436 112.026 865.396 112.794C866.377 113.541 866.868 114.746 866.868 116.41V127.386ZM856.724 124.122C856.724 125.167 856.969 125.935 857.46 126.426C857.972 126.917 858.612 127.162 859.38 127.162C860.127 127.162 860.948 126.938 861.844 126.49C862.761 126.021 863.647 125.391 864.5 124.602L864.308 125.274V120.986L864.596 121.274H860.788C859.273 121.274 858.217 121.509 857.62 121.978C857.023 122.426 856.724 123.141 856.724 124.122ZM877.84 129.114C876.667 129.114 875.6 128.794 874.64 128.154C873.68 127.493 872.923 126.533 872.368 125.274C871.813 123.994 871.536 122.447 871.536 120.634C871.536 117.669 872.293 115.429 873.808 113.914C875.323 112.399 877.403 111.642 880.048 111.642C880.603 111.642 881.179 111.685 881.776 111.77C882.395 111.855 883.024 111.983 883.664 112.154L883.152 112.442V106.01L883.44 106.362L880.496 105.722V104.346L885.712 104.122V127.258L885.328 126.81L888.208 127.386V128.794L883.728 128.986L883.344 126.234L883.664 126.362C882.704 127.279 881.733 127.973 880.752 128.442C879.792 128.89 878.821 129.114 877.84 129.114ZM878.736 127.162C879.483 127.162 880.251 126.97 881.04 126.586C881.851 126.181 882.661 125.583 883.472 124.794L883.152 125.658V113.53L883.504 114.17C882.203 113.743 881.019 113.53 879.952 113.53C878.075 113.53 876.645 114.138 875.664 115.354C874.683 116.57 874.192 118.255 874.192 120.41C874.192 121.818 874.384 123.034 874.768 124.058C875.173 125.061 875.717 125.829 876.4 126.362C877.104 126.895 877.883 127.162 878.736 127.162ZM902.931 127.386L902.515 126.81L905.458 127.386V128.794L900.979 128.986L900.595 125.914L900.819 126.01C899.88 127.034 898.867 127.813 897.779 128.346C896.691 128.858 895.635 129.114 894.611 129.114C893.373 129.114 892.328 128.719 891.475 127.93C890.621 127.141 890.195 125.946 890.195 124.346C890.195 123.087 890.461 122.127 890.995 121.466C891.528 120.783 892.264 120.303 893.203 120.026C894.141 119.749 895.229 119.61 896.467 119.61H900.659L900.371 119.93V116.858C900.371 115.685 900.061 114.853 899.443 114.362C898.824 113.85 897.971 113.594 896.883 113.594C896.307 113.594 895.688 113.658 895.027 113.786C894.387 113.893 893.704 114.074 892.979 114.33L893.363 113.914L893.043 116.826H891.347L891.091 112.858C892.307 112.453 893.448 112.154 894.515 111.962C895.581 111.749 896.563 111.642 897.459 111.642C899.165 111.642 900.499 112.026 901.459 112.794C902.44 113.541 902.931 114.746 902.931 116.41V127.386ZM892.786 124.122C892.786 125.167 893.032 125.935 893.523 126.426C894.035 126.917 894.675 127.162 895.443 127.162C896.189 127.162 897.011 126.938 897.907 126.49C898.824 126.021 899.709 125.391 900.563 124.602L900.371 125.274V120.986L900.659 121.274H896.851C895.336 121.274 894.28 121.509 893.683 121.978C893.085 122.426 892.786 123.141 892.786 124.122Z" fill="black"/>
<g filter="url(#filter0_i_575_240)">
<rect x="609" y="547" width="206" height="57" rx="28.5" fill="#00BABF" fill-opacity="0.37"/>
</g>
<rect x="607.5" y="545.5" width="209" height="60" rx="30" stroke="black" stroke-width="3"/>
<path d="M687.27 565.34C688.887 565.34 690.285 565.652 691.465 566.277C693.176 567.176 694.223 568.75 694.605 571H692.297C692.016 569.742 691.434 568.828 690.551 568.258C689.668 567.68 688.555 567.391 687.211 567.391C685.617 567.391 684.273 567.988 683.18 569.184C682.094 570.379 681.551 572.16 681.551 574.527C681.551 576.574 682 578.242 682.898 579.531C683.797 580.812 685.262 581.453 687.293 581.453C688.848 581.453 690.133 581.004 691.148 580.105C692.172 579.199 692.695 577.738 692.719 575.723H687.328V573.789H694.887V583H693.387L692.824 580.785C692.035 581.652 691.336 582.254 690.727 582.59C689.703 583.168 688.402 583.457 686.824 583.457C684.785 583.457 683.031 582.797 681.562 581.477C679.961 579.82 679.16 577.547 679.16 574.656C679.16 571.773 679.941 569.48 681.504 567.777C682.988 566.152 684.91 565.34 687.27 565.34ZM703.207 581.641C704.605 581.641 705.562 581.113 706.078 580.059C706.602 578.996 706.863 577.816 706.863 576.52C706.863 575.348 706.676 574.395 706.301 573.66C705.707 572.504 704.684 571.926 703.23 571.926C701.941 571.926 701.004 572.418 700.418 573.402C699.832 574.387 699.539 575.574 699.539 576.965C699.539 578.301 699.832 579.414 700.418 580.305C701.004 581.195 701.934 581.641 703.207 581.641ZM703.289 570.086C704.906 570.086 706.273 570.625 707.391 571.703C708.508 572.781 709.066 574.367 709.066 576.461C709.066 578.484 708.574 580.156 707.59 581.477C706.605 582.797 705.078 583.457 703.008 583.457C701.281 583.457 699.91 582.875 698.895 581.711C697.879 580.539 697.371 578.969 697.371 577C697.371 574.891 697.906 573.211 698.977 571.961C700.047 570.711 701.484 570.086 703.289 570.086ZM718.605 565.785H720.961V572.898H729.914V565.785H732.27V583H729.914V574.949H720.961V583H718.605V565.785ZM740.59 581.641C741.988 581.641 742.945 581.113 743.461 580.059C743.984 578.996 744.246 577.816 744.246 576.52C744.246 575.348 744.059 574.395 743.684 573.66C743.09 572.504 742.066 571.926 740.613 571.926C739.324 571.926 738.387 572.418 737.801 573.402C737.215 574.387 736.922 575.574 736.922 576.965C736.922 578.301 737.215 579.414 737.801 580.305C738.387 581.195 739.316 581.641 740.59 581.641ZM740.672 570.086C742.289 570.086 743.656 570.625 744.773 571.703C745.891 572.781 746.449 574.367 746.449 576.461C746.449 578.484 745.957 580.156 744.973 581.477C743.988 582.797 742.461 583.457 740.391 583.457C738.664 583.457 737.293 582.875 736.277 581.711C735.262 580.539 734.754 578.969 734.754 577C734.754 574.891 735.289 573.211 736.359 571.961C737.43 570.711 738.867 570.086 740.672 570.086ZM748.969 570.449H751.055V572.23C751.555 571.613 752.008 571.164 752.414 570.883C753.109 570.406 753.898 570.168 754.781 570.168C755.781 570.168 756.586 570.414 757.195 570.906C757.539 571.188 757.852 571.602 758.133 572.148C758.602 571.477 759.152 570.98 759.785 570.66C760.418 570.332 761.129 570.168 761.918 570.168C763.605 570.168 764.754 570.777 765.363 571.996C765.691 572.652 765.855 573.535 765.855 574.645V583H763.664V574.281C763.664 573.445 763.453 572.871 763.031 572.559C762.617 572.246 762.109 572.09 761.508 572.09C760.68 572.09 759.965 572.367 759.363 572.922C758.77 573.477 758.473 574.402 758.473 575.699V583H756.328V574.809C756.328 573.957 756.227 573.336 756.023 572.945C755.703 572.359 755.105 572.066 754.23 572.066C753.434 572.066 752.707 572.375 752.051 572.992C751.402 573.609 751.078 574.727 751.078 576.344V583H748.969V570.449ZM774.188 570.168C775.078 570.168 775.941 570.379 776.777 570.801C777.613 571.215 778.25 571.754 778.688 572.418C779.109 573.051 779.391 573.789 779.531 574.633C779.656 575.211 779.719 576.133 779.719 577.398H770.52C770.559 578.672 770.859 579.695 771.422 580.469C771.984 581.234 772.855 581.617 774.035 581.617C775.137 581.617 776.016 581.254 776.672 580.527C777.047 580.105 777.312 579.617 777.469 579.062H779.543C779.488 579.523 779.305 580.039 778.992 580.609C778.688 581.172 778.344 581.633 777.961 581.992C777.32 582.617 776.527 583.039 775.582 583.258C775.074 583.383 774.5 583.445 773.859 583.445C772.297 583.445 770.973 582.879 769.887 581.746C768.801 580.605 768.258 579.012 768.258 576.965C768.258 574.949 768.805 573.312 769.898 572.055C770.992 570.797 772.422 570.168 774.188 570.168ZM777.551 575.723C777.465 574.809 777.266 574.078 776.953 573.531C776.375 572.516 775.41 572.008 774.059 572.008C773.09 572.008 772.277 572.359 771.621 573.062C770.965 573.758 770.617 574.645 770.578 575.723H777.551Z" fill="black"/>
<path d="M641.198 571.948L659.643 571.948C661.94 571.948 663.802 573.81 663.802 576.107L663.802 577.632C663.802 579.929 661.94 581.792 659.643 581.792H645.208" stroke="black" stroke-width="2.08134" stroke-linejoin="round"/>
<path d="M644.844 567.573C643.135 569.281 642.177 570.239 640.469 571.948L644.844 576.323" stroke="black" stroke-width="2.08134" stroke-linejoin="round"/>
<path d="M932.151 191.8H712.36C711.226 191.8 710.306 192.718 710.306 193.85V447.708C710.306 448.84 711.226 449.758 712.36 449.758H932.151C933.285 449.758 934.205 448.84 934.205 447.708V193.85C934.205 192.718 933.285 191.8 932.151 191.8Z" fill="#F2F6FB"/>
<path d="M754.428 219.133V221.183H728.453C728.261 221.183 728.108 221.335 728.108 221.524H726.054C726.054 220.203 727.127 219.133 728.453 219.133H754.428ZM786.609 219.133V221.183H758.536V219.133H786.609ZM818.79 219.133V221.183H790.717V219.133H818.79ZM850.971 219.133V221.183H822.898V219.133H850.971ZM883.153 219.133V221.183H855.08V219.133H883.153ZM915.334 219.133V221.183H887.261V219.133H915.334ZM918.799 250.483H916.745V222.467H918.799V250.483ZM908.311 274.825V272.775H916.4C916.592 272.775 916.745 272.622 916.745 272.433V254.583H918.799V272.433C918.799 273.755 917.726 274.825 916.4 274.825H908.311ZM876.13 274.825V272.775H904.203V274.825H876.13ZM843.949 274.825V272.775H872.022V274.825H843.949ZM811.768 274.825V272.775H839.841V274.825H811.768ZM779.586 274.825V272.775H807.659V274.825H779.586ZM747.405 274.825V272.775H775.478V274.825H747.405ZM726.054 261.325H728.108V272.433C728.108 272.621 728.262 272.775 728.453 272.775H743.297V274.825H728.453C727.129 274.825 726.054 273.755 726.054 272.433V261.325ZM726.054 229.208H728.108V257.225H726.054V229.208ZM726.054 221.524H728.108V225.108H726.054V221.524Z" fill="#D8DEED"/>
<path d="M710.306 195.56C710.306 191.785 713.37 188.725 717.152 188.725H927.359C931.14 188.725 934.205 191.785 934.205 195.56V203.758H710.306V195.56Z" fill="#D8DEED"/>
<path d="M720.405 199.658C722.202 199.658 723.658 198.205 723.658 196.412C723.658 194.62 722.202 193.167 720.405 193.167C718.609 193.167 717.153 194.62 717.153 196.412C717.153 198.205 718.609 199.658 720.405 199.658Z" fill="#FF5645"/>
<path d="M731.018 199.658C732.814 199.658 734.271 198.205 734.271 196.412C734.271 194.62 732.814 193.167 731.018 193.167C729.222 193.167 727.766 194.62 727.766 196.412C727.766 198.205 729.222 199.658 731.018 199.658Z" fill="#FFCB3D"/>
<path d="M741.974 199.658C743.77 199.658 745.226 198.205 745.226 196.412C745.226 194.62 743.77 193.167 741.974 193.167C740.177 193.167 738.721 194.62 738.721 196.412C738.721 198.205 740.177 199.658 741.974 199.658Z" fill="#3ABF7C"/>
<path d="M726.085 289.514C726.085 288.761 726.695 288.15 727.456 288.15H916.09C916.847 288.15 917.461 288.759 917.461 289.514V347.354C917.461 348.107 916.851 348.718 916.09 348.718H727.456C726.699 348.718 726.085 348.109 726.085 347.354V289.514ZM726.739 359.558H799.66C800.038 359.558 800.345 359.864 800.345 360.242V368.442C800.345 368.819 800.038 369.125 799.66 369.125H726.739C726.361 369.125 726.054 368.819 726.054 368.442V360.242C726.054 359.864 726.361 359.558 726.739 359.558ZM726.739 375.275H778.434C778.812 375.275 779.119 375.581 779.119 375.958V384.158C779.119 384.536 778.812 384.842 778.434 384.842H726.739C726.361 384.842 726.054 384.536 726.054 384.158V375.958C726.054 375.581 726.361 375.275 726.739 375.275ZM726.739 391.333H789.047C789.425 391.333 789.732 391.639 789.732 392.017V400.217C789.732 400.594 789.425 400.9 789.047 400.9H726.739C726.361 400.9 726.054 400.594 726.054 400.217V392.017C726.054 391.639 726.361 391.333 726.739 391.333ZM726.739 407.05H767.821C768.199 407.05 768.506 407.356 768.506 407.733V415.933C768.506 416.311 768.199 416.617 767.821 416.617H726.739C726.361 416.617 726.054 416.311 726.054 415.933V407.733C726.054 407.356 726.361 407.05 726.739 407.05ZM822.255 375.275H897.573C897.951 375.275 898.258 375.581 898.258 375.958V384.158C898.258 384.536 897.951 384.842 897.573 384.842H822.255C821.877 384.842 821.571 384.536 821.571 384.158V375.958C821.571 375.581 821.877 375.275 822.255 375.275ZM822.255 391.333H907.159C907.537 391.333 907.844 391.639 907.844 392.017V400.217C907.844 400.594 907.537 400.9 907.159 400.9H822.255C821.877 400.9 821.571 400.594 821.571 400.217V392.017C821.571 391.639 821.877 391.333 822.255 391.333ZM822.255 407.05H916.745C917.123 407.05 917.43 407.356 917.43 407.733V415.933C917.43 416.311 917.123 416.617 916.745 416.617H822.255C821.877 416.617 821.571 416.311 821.571 415.933V407.733C821.571 407.356 821.877 407.05 822.255 407.05ZM822.255 422.767H887.987C888.365 422.767 888.672 423.072 888.672 423.45V431.65C888.672 432.027 888.365 432.333 887.987 432.333H822.255C821.877 432.333 821.571 432.027 821.571 431.65V423.45C821.571 423.072 821.877 422.767 822.255 422.767ZM822.287 359.62H916.776C917.154 359.62 917.461 359.926 917.461 360.304V368.628C917.461 369.005 917.154 369.311 916.776 369.311H822.287C821.908 369.311 821.602 369.005 821.602 368.628V360.304C821.602 359.926 821.908 359.62 822.287 359.62Z" fill="#E1E5F0"/>
<path fill-rule="evenodd" clip-rule="evenodd" d="M823.992 330.486L822.573 330.502L822.584 330.486H805.224C804.844 330.486 804.699 330.226 804.898 329.906L817.195 310.202C817.394 309.882 817.727 309.88 817.934 310.193L826.799 323.718L830.207 318.245C830.407 317.925 830.741 317.914 830.956 318.225L838.799 329.594C839.013 329.903 838.883 330.164 838.502 330.176L831.275 330.399L830.966 330.403L831.016 330.486C831.016 330.486 830.709 330.486 830.328 330.486H823.992ZM830.849 313.231C829.286 313.231 828.018 311.955 828.018 310.381C828.018 308.807 829.286 307.532 830.849 307.532C832.412 307.532 833.68 308.807 833.68 310.381C833.68 311.955 832.412 313.231 830.849 313.231Z" fill="white"/>
<path d="M534.85 487H569.77C570.621 487 571.311 487.688 571.311 488.537C571.311 489.387 570.621 490.075 569.77 490.075H534.85C533.999 490.075 533.31 489.387 533.31 488.537C533.31 487.688 533.999 487 534.85 487ZM643.034 487H701.234C702.085 487 702.774 487.688 702.774 488.537C702.774 489.387 702.085 490.075 701.234 490.075H643.034C642.183 490.075 641.493 489.387 641.493 488.537C641.493 487.688 642.183 487 643.034 487Z" fill="#FFCB3D"/>
<path d="M701.41 487.01C701.352 487.003 701.293 487 701.234 487H643.034C642.933 487 642.835 487.01 642.74 487.028L645.49 465.137H671.236L677.364 469.647C678.767 471.048 680.308 472.312 681.951 473.439C685.957 476.104 688.045 476.07 694.139 479.008C695.782 479.794 697.357 480.648 698.932 481.639C699.685 482.323 701.02 483.689 701.431 485.329C701.5 485.603 701.5 485.876 701.534 486.115C701.534 486.434 701.487 486.733 701.41 487.01ZM570.21 487.064C570.07 487.022 569.923 487 569.77 487H534.85C534.759 487 534.67 487.008 534.583 487.023L542.853 465.838L567.366 469.152L570.21 487.064Z" fill="#474961"/>
<path d="M559.025 374.672C558.878 374.64 558.731 374.608 558.583 374.576C566.492 328.549 572.521 300.965 576.671 291.826C580.821 282.687 585.712 276.216 591.344 272.411C596.718 266.3 606.197 266.641 619.309 266.258C619.642 266.242 620.02 266.246 620.353 266.23C633.911 266.001 631.656 266.518 635.235 267.624C652.411 272.202 666.659 301.117 677.98 354.368L681.578 371.81C681.527 371.667 681.474 371.526 681.419 371.388C681.517 371.839 681.565 372.296 681.562 372.76C681.924 380.212 676.129 386.052 664.176 390.281C656.874 392.865 642.582 399.975 619.085 402.218C609.109 403.17 590.494 402.964 563.237 401.598C558.733 394.047 556.806 388.003 557.455 383.465C557.811 380.978 558.334 378.047 559.025 374.672Z" fill="#8F4AFF"/>
<path opacity="0.176986" d="M559.006 374.762C599.048 383.43 628.635 382.76 647.768 372.753C666.527 362.941 677.737 362.454 681.398 371.292C681.51 371.774 681.565 372.263 681.562 372.759C681.924 380.211 676.129 386.052 664.176 390.281C656.874 392.864 642.582 399.975 619.085 402.218C609.109 403.17 590.493 402.963 563.237 401.598C558.733 394.047 556.806 388.002 557.455 383.464C557.808 380.999 558.325 378.099 559.006 374.762Z" fill="#444444"/>
<path d="M595.457 239.76C591.624 239.171 588.55 238.543 586.233 237.876C584.335 237.609 581.433 236.857 580.295 234.628C578.636 231.428 581.672 227.058 585.06 222.151C589.137 216.271 591.636 214.15 595.566 211.376C602.256 206.653 606.388 206.47 609.385 209.509C609.686 209.814 609.987 210.32 610.285 211.026C611.14 210.902 612.014 210.844 612.903 210.857L620.435 210.993C629.987 211.096 637.587 219.262 637.45 229.136V229.751L637.245 248.782L637.06 257.693C636.933 263.828 631.913 268.735 625.765 268.735H606.559C606.517 268.735 606.475 268.735 606.433 268.734C600.194 268.665 595.193 263.562 595.262 257.335L595.457 239.76Z" fill="#FF5678"/>
<path d="M751.7 248.821L493.236 235.302C491.348 235.204 489.737 236.651 489.638 238.536L485.266 321.788C485.167 323.672 486.617 325.28 488.506 325.379L746.97 338.897C748.858 338.996 750.469 337.548 750.568 335.664L754.94 252.412C755.038 250.527 753.588 248.919 751.7 248.821Z" fill="#D8DEED"/>
<path d="M664.867 270.281L503.498 261.841C502.743 261.802 502.098 262.381 502.059 263.135L501.199 279.512C501.159 280.266 501.739 280.909 502.495 280.948L663.864 289.388C664.619 289.428 665.263 288.849 665.303 288.095L666.163 271.718C666.202 270.964 665.622 270.321 664.867 270.281Z" fill="white"/>
<path d="M623.153 206.267L622.706 211.943C622.684 212.222 622.494 212.46 622.225 212.542C620.729 213.003 619.275 213.17 617.863 213.044C616.41 212.915 614.273 212.395 611.451 211.484C611.117 211.376 610.918 211.033 610.992 210.69L613.261 200.16L613.394 200.197C612.149 197.687 611.36 196.283 611.028 195.985C609.765 194.777 608.768 187.324 614.397 187.774C615.017 187.777 615.621 187.954 616.202 188.237L616.239 188.267C616.427 188.42 616.669 188.429 616.911 188.437C617.49 188.377 617.924 187.919 617.897 187.338L617.269 178.437C617.208 177.859 617.608 177.405 618.187 177.344C619.447 177.212 620.665 177.016 621.896 176.612C622.067 176.594 622.199 176.546 622.335 176.531C623.547 176.267 630.075 175.17 634.128 179.658C634.484 180.101 634.841 180.545 635.129 180.995C635.871 182.154 636.287 183.485 636.335 184.923L636.611 191.146C636.608 191.765 636.604 192.384 636.536 193.044C635.707 200.861 632.792 206.526 629.882 207.003C628.387 207.194 626.871 207.181 625.361 206.893C625.169 206.821 625.292 206.88 623.153 206.267ZM593.368 380.143L567.366 469.152L542.853 465.838L558.583 374.576L558.661 374.581C558.655 374.615 558.649 374.649 558.644 374.683C571.252 377.426 582.827 379.246 593.368 380.143V380.143ZM639.125 376.404C642.211 375.37 645.091 374.153 647.768 372.753C666.194 363.116 677.337 362.475 681.196 370.83C683.402 377.85 684.033 384.255 683.089 390.047C680.254 407.433 676.303 432.462 671.236 465.137H645.49L645.936 391.782L639.125 376.404ZM581.586 236.058C582.968 237.188 584.922 237.651 586.326 237.848C590.586 239.075 597.411 240.169 606.8 241.132L601.931 260.149L632.769 271.152C632.92 271.184 633.639 271.471 634.928 272.013C648.299 275.814 657.206 279.259 661.649 282.348C665.094 284.744 664.394 287.879 659.55 291.753C655.694 294.837 650.522 295.729 645.853 294.115L625.923 287.227C625.924 287.203 625.925 287.178 625.926 287.154C600.946 284.437 585.909 279.078 580.814 271.078C576.113 263.697 576.37 252.024 581.586 236.058V236.058ZM658.72 244.005C666.962 235.544 674.505 234.183 681.349 239.922C688.194 245.661 680.651 247.022 658.72 244.005Z" fill="#ED9474"/>
<path d="M603.766 192.313C602.729 192.723 601.702 192.881 600.688 192.786C593.974 192.16 589.423 186.273 587.625 180.519C585.828 174.764 588.986 171.812 594.038 168.593C599.09 165.373 604.874 167.668 609.695 170.157C612.513 171.612 614.166 174.135 614.655 177.727C615.417 177.658 616.259 177.571 617.2 177.448C618.289 177.334 619.504 177.038 621.525 176.62C621.696 176.602 622.654 176.366 622.79 176.352C624.001 176.088 630.113 175.2 634.165 179.688C634.142 179.793 633.094 179.688 630.027 181.72C626.534 184.035 623.092 194.179 620.012 194.021C619.978 194.021 619.909 194.055 619.804 194.123L619.94 193.994L618.054 190.138C617.628 189.359 616.981 188.774 616.243 188.301C615.662 188.019 615.058 187.842 614.438 187.838C612.79 187.873 611.152 189.316 610.646 191.053C610.174 192.786 610.678 194.622 612.005 195.789C612.844 196.56 613.926 197.03 615.071 197.116L616.463 196.944C616.407 196.994 616.35 197.045 616.293 197.096C613.919 200.833 612.732 202.701 612.732 202.701C612.732 202.701 611.704 202.425 609.649 201.872C607.122 201 605.162 197.813 603.766 192.313ZM631.621 189.849C630.958 190.09 629.886 190.375 628.908 190.237C627.272 190.065 628.67 188.956 630.127 188.735C630.804 188.629 631.378 188.844 631.747 189.08C632.01 189.293 631.954 189.745 631.621 189.849ZM637.395 189.106C636.739 189.415 635.712 189.798 634.71 189.765C633.017 189.703 634.333 188.465 635.745 188.145C636.483 187.965 637.019 188.149 637.418 188.348C637.746 188.519 637.725 188.968 637.395 189.106Z" fill="#482D1F"/>
<path d="M629.712 194.275C629.329 193.903 629.365 192.937 629.406 192.349C629.393 191.904 629.773 191.589 630.148 191.55C630.39 191.559 630.711 191.662 630.829 192.131C631.185 193.227 630.226 194.908 629.712 194.275ZM635.326 193.652C635.011 193.272 634.979 192.314 635.02 191.726C635.008 191.28 635.388 190.966 635.762 190.926C636.004 190.935 636.325 191.039 636.443 191.508C636.799 192.604 635.806 194.288 635.326 193.652Z" fill="#482D1F"/>
<path d="M634.712 191.117C634.718 190.928 634.569 190.771 634.38 190.765C634.191 190.76 634.033 190.908 634.028 191.096L633.966 193.13L633.968 193.173L634.313 196.777C634.305 196.819 634.275 196.849 634.231 196.858C633.82 196.856 633.292 196.856 632.646 196.858C632.457 196.859 632.305 197.012 632.305 197.201C632.306 197.39 632.46 197.542 632.649 197.541C633.306 197.539 633.84 197.539 634.252 197.541L634.29 197.539C634.688 197.498 634.976 197.182 634.999 196.8L634.998 196.747L634.651 193.129L634.712 191.117Z" fill="#482D1F"/>
<path d="M632.659 200.356C632.417 200.347 631.79 200.275 631.614 199.916C631.607 199.848 631.528 199.753 631.555 199.681C631.639 199.501 632.695 199.39 632.695 199.39C634.094 199.278 634.428 199.174 634.548 199.333C634.592 199.431 634.607 199.567 634.401 199.898C634.155 200.508 633.04 200.384 632.659 200.356Z" fill="#482D1F"/>
<path d="M686.484 271.412L733.508 273.871C735.794 273.991 736.61 274.272 737.422 274.762C738.235 275.251 738.856 275.94 739.259 276.798C739.662 277.655 739.857 278.495 739.737 280.776L739.423 286.761C739.303 289.043 739.022 289.858 738.531 290.668C738.04 291.479 737.35 292.099 736.491 292.502C735.632 292.904 734.79 293.098 732.504 292.979L685.481 290.519C683.195 290.4 682.378 290.119 681.566 289.629C680.754 289.139 680.132 288.45 679.729 287.593C679.326 286.735 679.132 285.896 679.251 283.614L679.566 277.629C679.685 275.348 679.967 274.533 680.458 273.722C680.948 272.912 681.639 272.291 682.498 271.889C683.357 271.487 684.198 271.292 686.484 271.412Z" fill="#474BFF"/>
<path d="M636.581 304.312L537.777 299.144C537.399 299.124 537.077 299.414 537.057 299.791L536.556 309.344C536.536 309.721 536.826 310.043 537.204 310.063L636.008 315.23C636.386 315.25 636.708 314.96 636.728 314.584L637.229 305.03C637.249 304.653 636.959 304.332 636.581 304.312Z" fill="#F2F6FB"/>
<path d="M700.544 307.901L644.476 304.968C644.098 304.949 643.776 305.238 643.756 305.615L643.254 315.169C643.234 315.545 643.525 315.867 643.902 315.887L699.971 318.819C700.349 318.839 700.671 318.55 700.691 318.173L701.192 308.619C701.212 308.242 700.922 307.921 700.544 307.901Z" fill="#F2F6FB"/>
<path d="M656.648 292.816C656.911 292.922 657.21 292.795 657.316 292.533C657.422 292.27 657.295 291.972 657.032 291.866C655.38 291.201 654.08 290.725 651.172 289.696C648.279 288.673 646.988 288.2 645.354 287.543C645.091 287.437 644.792 287.564 644.686 287.826C644.58 288.089 644.707 288.387 644.97 288.493C646.622 289.158 647.922 289.634 650.829 290.663C653.723 291.686 655.014 292.159 656.648 292.816ZM661.761 289.152C662.03 289.241 662.321 289.096 662.411 288.827C662.5 288.559 662.355 288.269 662.086 288.179C660.242 287.566 658.825 287.059 655.675 285.905C652.517 284.747 651.092 284.238 649.235 283.621C648.966 283.531 648.676 283.676 648.586 283.945C648.496 284.213 648.642 284.504 648.911 284.593C650.754 285.206 652.172 285.713 655.321 286.867C658.48 288.025 659.905 288.535 661.761 289.152Z" fill="#482D1F"/>
<path d="M611.506 240.156C614.088 233.127 615.588 228.086 616.008 225.011C616.046 224.73 615.849 224.472 615.568 224.434C615.287 224.396 615.028 224.592 614.99 224.872C614.583 227.855 613.1 232.84 610.542 239.804C610.444 240.069 610.581 240.364 610.847 240.461C611.113 240.559 611.408 240.422 611.506 240.156Z" fill="#482D1F"/>
</g>
</g>
<defs>
<filter id="filter0_i_575_240" x="606" y="544" width="212" height="63" filterUnits="userSpaceOnUse" color-interpolation-filters="sRGB">
<feFlood flood-opacity="0" result="BackgroundImageFix"/>
<feBlend mode="normal" in="SourceGraphic" in2="BackgroundImageFix" result="shape"/>
<feColorMatrix in="SourceAlpha" type="matrix" values="0 0 0 0 0 0 0 0 0 0 0 0 0 0 0 0 0 0 127 0" result="hardAlpha"/>
<feMorphology radius="7" operator="erode" in="SourceAlpha" result="effect1_innerShadow_575_240"/>
<feOffset/>
<feComposite in2="hardAlpha" operator="arithmetic" k2="-1" k3="1"/>
<feColorMatrix type="matrix" values="0 0 0 0 1 0 0 0 0 1 0 0 0 0 1 0 0 0 1 0"/>
<feBlend mode="normal" in2="shape" result="effect1_innerShadow_575_240"/>
</filter>
<linearGradient id="paint0_linear_575_240" x1="1160.93" y1="-172.314" x2="1457.97" y2="548.721" gradientUnits="userSpaceOnUse">
<stop stop-color="#C1DEE8"/>
<stop offset="1" stop-color="#FFA96C" stop-opacity="0.43"/>
</linearGradient>
<clipPath id="clip0_575_240">
<rect width="1440" height="699" fill="white"/>
</clipPath>
<clipPath id="clip1_575_240">
<rect width="1448" height="1024" rx="50" fill="white"/>
</clipPath>
</defs>
</svg>
