<svg width="80" height="80" viewBox="0 0 80 80" fill="none" xmlns="http://www.w3.org/2000/svg">
<circle cx="40" cy="40" r="40" fill="#5D67DE"/>
<path d="M49.1875 49.1875V53.125H30.1562C28.5898 53.125 27.0875 52.5027 25.9799 51.3951C24.8723 50.2875 24.25 48.7852 24.25 47.2188C24.25 45.6523 24.8723 44.15 25.9799 43.0424C27.0875 41.9348 28.5898 41.3125 30.1562 41.3125H30.8125V38.6875H30.1562C27.8936 38.6875 25.7237 39.5863 24.1237 41.1862C22.5238 42.7862 21.625 44.9561 21.625 47.2188C21.625 49.4814 22.5238 51.6513 24.1237 53.2513C25.7237 54.8512 27.8936 55.75 30.1562 55.75H49.1875V59.6875H59.6875V49.1875H49.1875ZM57.0625 57.0625H51.8125V51.8125H57.0625V57.0625Z" fill="white"/>
<path d="M46.5625 47.875H43.9375V43.9375H36.0625V47.875H33.4375V43.9375C33.4382 43.2415 33.715 42.5742 34.2071 42.0821C34.6992 41.59 35.3665 41.3132 36.0625 41.3125H43.9375C44.6335 41.3132 45.3008 41.59 45.7929 42.0821C46.285 42.5742 46.5618 43.2415 46.5625 43.9375V47.875ZM40 40C39.2212 40 38.46 39.7691 37.8124 39.3364C37.1649 38.9038 36.6602 38.2888 36.3622 37.5693C36.0642 36.8498 35.9862 36.0581 36.1382 35.2943C36.2901 34.5305 36.6651 33.8289 37.2158 33.2783C37.7664 32.7276 38.468 32.3526 39.2318 32.2007C39.9956 32.0487 40.7873 32.1267 41.5068 32.4247C42.2263 32.7227 42.8413 33.2274 43.2739 33.8749C43.7066 34.5225 43.9375 35.2837 43.9375 36.0625C43.9365 37.1065 43.5213 38.1074 42.7831 38.8456C42.0449 39.5838 41.044 39.999 40 40ZM40 34.75C39.7404 34.75 39.4867 34.827 39.2708 34.9712C39.055 35.1154 38.8867 35.3204 38.7874 35.5602C38.6881 35.8001 38.6621 36.064 38.7127 36.3186C38.7634 36.5732 38.8884 36.807 39.0719 36.9906C39.2555 37.1741 39.4893 37.2991 39.7439 37.3498C39.9985 37.4004 40.2624 37.3744 40.5023 37.2751C40.7421 37.1758 40.9471 37.0075 41.0913 36.7917C41.2355 36.5758 41.3125 36.3221 41.3125 36.0625C41.3122 35.7145 41.1738 35.3809 40.9277 35.1348C40.6816 34.8887 40.348 34.7503 40 34.75Z" fill="white"/>
<path d="M49.8438 24.25H30.8125V20.3125H20.3125V30.8125H30.8125V26.875H49.8438C51.4102 26.875 52.9125 27.4973 54.0201 28.6049C55.1277 29.7125 55.75 31.2148 55.75 32.7812C55.75 34.3477 55.1277 35.85 54.0201 36.9576C52.9125 38.0652 51.4102 38.6875 49.8438 38.6875H49.1875V41.3125H49.8438C52.1064 41.3125 54.2763 40.4137 55.8763 38.8138C57.4762 37.2138 58.375 35.0439 58.375 32.7812C58.375 30.5186 57.4762 28.3487 55.8763 26.7487C54.2763 25.1488 52.1064 24.25 49.8438 24.25ZM28.1875 28.1875H22.9375V22.9375H28.1875V28.1875Z" fill="white"/>
</svg>
