<svg width="80" height="80" viewBox="0 0 80 80" fill="none" xmlns="http://www.w3.org/2000/svg">
<circle cx="40" cy="40" r="40" fill="#5D67DE"/>
<path d="M55.75 26H50.5V24.25C50.5 23.7859 50.3156 23.3408 49.9874 23.0126C49.6593 22.6844 49.2141 22.5 48.75 22.5H31.25C30.7859 22.5 30.3408 22.6844 30.0126 23.0126C29.6844 23.3408 29.5 23.7859 29.5 24.25V26H24.25C23.7859 26 23.3408 26.1844 23.0126 26.5126C22.6844 26.8408 22.5 27.2859 22.5 27.75V33C22.5 40.5425 25.65 45.0925 30.935 45.25C31.7061 46.5834 32.7612 47.7309 34.0253 48.6109C35.2895 49.491 36.7318 50.0822 38.25 50.3425V54H34.75V57.5H45.25V54H41.75V50.3425C43.2682 50.0822 44.7105 49.491 45.9747 48.6109C47.2388 47.7309 48.2939 46.5834 49.065 45.25C54.315 45.075 57.5 40.525 57.5 33V27.75C57.5 27.2859 57.3156 26.8408 56.9874 26.5126C56.6592 26.1844 56.2141 26 55.75 26ZM26 33V29.5H29.5V41.4525C26.385 40.14 26 35.275 26 33ZM50.5 41.4525V29.5H54V33C54 35.275 53.615 40.14 50.5 41.4525Z" fill="white"/>
</svg>
