<svg width="72" height="65" viewBox="0 0 72 65" fill="none" xmlns="http://www.w3.org/2000/svg">
<path d="M70.0909 1.00587C69.524 0.512424 68.8339 0.184747 68.0953 0.0583674C67.3567 -0.0680125 66.5978 0.0117289 65.901 0.288944L2.61036 25.3373C1.783 25.6647 1.08313 26.2532 0.61548 27.0148C0.147832 27.7763 -0.0624497 28.6699 0.0161025 29.5619C0.0946547 30.4539 0.457816 31.2963 1.05124 31.963C1.64467 32.6297 2.43646 33.0849 3.30811 33.2605L20.4871 36.722V58.0835C20.4785 58.9053 20.7164 59.7106 21.1696 60.3939C21.6229 61.0773 22.2704 61.6069 23.0274 61.9133C23.5345 62.1272 24.0786 62.2381 24.6284 62.2396C25.1656 62.2379 25.6972 62.1287 26.1922 61.9184C26.6873 61.7081 27.1359 61.4009 27.5122 61.0146L37.3187 51.1354L51.7882 63.9629C52.5338 64.63 53.4961 64.9989 54.4933 65C54.9268 64.9995 55.3576 64.9306 55.7699 64.7959C56.45 64.5786 57.0617 64.1855 57.5439 63.6557C58.026 63.126 58.3619 62.4781 58.5179 61.7767L71.4169 5.07358C71.5853 4.33821 71.5508 3.57043 71.317 2.85342C71.0833 2.1364 70.6593 1.49748 70.0909 1.00587ZM2.74884 29.3176C2.71472 29.0191 2.78153 28.7177 2.93847 28.4622C3.09541 28.2066 3.33331 28.0119 3.61371 27.9094L61.6294 4.94867L21.5406 34.1158L3.84612 30.5507C3.55219 30.4995 3.28399 30.3499 3.08488 30.1262C2.88577 29.9024 2.76737 29.6175 2.74884 29.3176ZM25.5721 59.0605C25.3803 59.2538 25.1359 59.3854 24.8698 59.4387C24.6037 59.492 24.3279 59.4647 24.0773 59.3601C23.8266 59.2555 23.6124 59.0784 23.4617 58.8512C23.311 58.6239 23.2305 58.3568 23.2305 58.0835V38.6459L35.2551 49.306L25.5721 59.0605ZM68.7428 4.45619L55.8438 61.1593C55.7907 61.3926 55.6783 61.6081 55.5177 61.7845C55.3571 61.9609 55.1538 62.0923 54.9277 62.1658C54.7015 62.2392 54.4603 62.2523 54.2276 62.2036C53.995 62.1549 53.7789 62.0462 53.6005 61.888L24.0554 35.6957L68.5211 3.34404C68.638 3.50101 68.7187 3.68236 68.757 3.8748C68.7954 4.06724 68.7905 4.26589 68.7428 4.45619Z" fill="#FF791A"/>
</svg>
