<svg width="80" height="80" viewBox="0 0 80 80" fill="none" xmlns="http://www.w3.org/2000/svg">
<circle cx="40" cy="40" r="40" fill="#5D67DE"/>
<path fill-rule="evenodd" clip-rule="evenodd" d="M40.145 24.25C36.1927 24.25 32.5912 25.5555 30.4605 26.6221C30.268 26.7184 30.0887 26.8129 29.9215 26.9039C29.5908 27.0841 29.309 27.2521 29.085 27.4L31.5088 30.9683L32.6498 31.4224C37.1088 33.672 43.0885 33.672 47.5484 31.4224L48.8434 30.7504L51.1359 27.4C50.661 27.0902 50.1671 26.8106 49.6572 26.5626C47.5379 25.5074 44.023 24.25 40.145 24.25ZM34.5074 28.289C33.6491 28.1284 32.8014 27.9157 31.969 27.652C33.9649 26.7656 36.9399 25.825 40.1442 25.825C42.364 25.825 44.4632 26.2765 46.1992 26.8488C44.1648 27.1349 41.9939 27.6205 39.9254 28.2181C38.2979 28.6889 36.3957 28.6381 34.5074 28.289ZM48.4724 32.72L48.258 32.8285C43.3519 35.303 36.8454 35.303 31.9393 32.8285L31.7363 32.7253C24.367 40.8111 18.7408 55.7474 40.145 55.7474C61.5475 55.7474 55.7839 40.532 48.4724 32.72ZM39.235 40C38.7709 40 38.3258 40.1844 37.9976 40.5126C37.6694 40.8408 37.485 41.2859 37.485 41.75C37.485 42.2141 37.6694 42.6592 37.9976 42.9874C38.3258 43.3156 38.7709 43.5 39.235 43.5V40ZM40.985 38.25V37.375H39.235V38.25C38.3068 38.25 37.4165 38.6187 36.7602 39.2751C36.1038 39.9315 35.735 40.8217 35.735 41.75C35.735 42.6783 36.1038 43.5685 36.7602 44.2249C37.4165 44.8813 38.3068 45.25 39.235 45.25V48.75C38.8731 48.7501 38.5201 48.638 38.2245 48.4291C37.929 48.2202 37.7055 47.9248 37.5848 47.5836C37.5075 47.3648 37.3465 47.1856 37.1371 47.0855C36.9277 46.9854 36.6871 46.9726 36.4683 47.0499C36.2494 47.1272 36.0703 47.2882 35.9702 47.4976C35.8701 47.707 35.8573 47.9475 35.9345 48.1664C36.1759 48.8489 36.6229 49.4397 37.214 49.8577C37.805 50.2756 38.5111 50.5 39.235 50.5V51.375H40.985V50.5C41.9133 50.5 42.8035 50.1313 43.4599 49.4749C44.1163 48.8185 44.485 47.9283 44.485 47C44.485 46.0717 44.1163 45.1815 43.4599 44.5251C42.8035 43.8687 41.9133 43.5 40.985 43.5V40C41.7463 40 42.3947 40.4856 42.6362 41.1664C42.672 41.2778 42.7298 41.3808 42.8061 41.4695C42.8825 41.5581 42.9759 41.6305 43.0807 41.6825C43.1855 41.7344 43.2997 41.7648 43.4165 41.7718C43.5333 41.7789 43.6503 41.7624 43.7606 41.7234C43.8709 41.6844 43.9723 41.6237 44.0587 41.5449C44.1452 41.4661 44.2149 41.3707 44.2639 41.2644C44.3128 41.1582 44.34 41.0432 44.3437 40.9262C44.3474 40.8093 44.3276 40.6928 44.2855 40.5836C44.0442 39.9011 43.5972 39.3103 43.0061 38.8923C42.415 38.4744 41.7089 38.25 40.985 38.25ZM40.985 45.25V48.75C41.4492 48.75 41.8943 48.5656 42.2225 48.2374C42.5507 47.9093 42.735 47.4641 42.735 47C42.735 46.5359 42.5507 46.0908 42.2225 45.7626C41.8943 45.4344 41.4492 45.25 40.985 45.25Z" fill="white"/>
</svg>
