<svg width="143" height="143" viewBox="0 0 143 143" fill="none" xmlns="http://www.w3.org/2000/svg">
<g filter="url(#filter0_d_135_380)">
<circle cx="71.5" cy="69.5" r="45.5" fill="#606D80"/>
</g>
<path d="M83.265 47.3086C83.5565 47.4291 83.8056 47.6333 83.9809 47.8955C84.1563 48.1576 84.2499 48.4659 84.2499 48.7812V56.75H92.2187C92.5343 56.7494 92.843 56.8426 93.1056 57.0177C93.3682 57.1927 93.573 57.4419 93.6938 57.7334C93.8147 58.025 93.8462 58.3459 93.7845 58.6554C93.7228 58.965 93.5705 59.2492 93.3471 59.4721L86.9721 65.8471C86.8238 65.995 86.6478 66.1122 86.4542 66.1921C86.2606 66.2719 86.0531 66.3129 85.8437 66.3125H76.941L74.5823 68.6744C74.7083 69.147 74.724 69.6421 74.6283 70.1217C74.5325 70.6013 74.3277 71.0525 74.0298 71.4403C73.7319 71.8282 73.3488 72.1424 72.9102 72.3586C72.4715 72.5749 71.989 72.6874 71.4999 72.6875C70.6546 72.6875 69.8438 72.3517 69.246 71.7539C68.6483 71.1561 68.3124 70.3454 68.3124 69.5L68.3156 69.3534C68.3375 68.8772 68.4659 68.412 68.6913 67.9921C68.9167 67.5721 69.2334 67.208 69.6182 66.9267C70.0029 66.6453 70.4459 66.4538 70.9144 66.3663C71.3829 66.2787 71.8651 66.2974 72.3255 66.4209L74.6874 64.0589V55.1562C74.6871 54.9468 74.728 54.7393 74.8078 54.5457C74.8877 54.3521 75.0049 54.1761 75.1528 54.0279L81.5278 47.6529C81.7509 47.4301 82.035 47.2785 82.3442 47.2172C82.6534 47.156 82.9739 47.1878 83.265 47.3086ZM85.1839 63.125L88.3714 59.9375H82.6562C82.2335 59.9375 81.8281 59.7696 81.5292 59.4707C81.2303 59.1718 81.0624 58.7664 81.0624 58.3437V52.6285L77.8749 55.816V63.125H85.1839ZM90.4496 66.8735C90.9996 70.8424 90.2891 74.8838 88.4185 78.4271C86.5479 81.9705 83.6117 84.8368 80.0243 86.6215C76.4369 88.4062 72.3796 89.0192 68.4251 88.3738C64.4706 87.7284 60.8187 85.8572 57.9849 83.0246C55.1511 80.1919 53.2785 76.5407 52.6316 72.5864C51.9846 68.6322 52.596 64.5746 54.3793 60.9866C56.1626 57.3985 59.0278 54.4611 62.5704 52.5891C66.113 50.7171 70.1541 50.0051 74.1233 50.5535L72.9024 51.7743C72.3972 52.2796 72.0116 52.8917 71.7741 53.5657L71.4999 53.5625C68.3362 53.5629 65.2442 54.505 62.6177 56.2687C59.9912 58.0323 57.949 60.5378 56.7512 63.466C55.5534 66.3942 55.2542 69.6126 55.8917 72.7114C56.5292 75.8103 58.0746 78.6492 60.331 80.8668C62.5874 83.0844 65.4527 84.5803 68.5621 85.1639C71.6715 85.7476 74.8843 85.3926 77.7913 84.1442C80.6983 82.8958 83.1679 80.8104 84.8858 78.1537C86.6036 75.497 87.4919 72.3891 87.4374 69.2259C88.1088 68.9884 88.7187 68.604 89.2224 68.1007L90.4464 66.8735H90.4496ZM71.4999 58.3437C69.2934 58.3437 67.1365 58.998 65.3019 60.2239C63.4672 61.4498 62.0373 63.1921 61.1929 65.2307C60.3485 67.2692 60.1276 69.5124 60.5581 71.6765C60.9885 73.8406 62.0511 75.8284 63.6113 77.3886C65.1715 78.9489 67.1594 80.0114 69.3235 80.4419C71.4876 80.8723 73.7307 80.6514 75.7692 79.807C77.8078 78.9626 79.5502 77.5327 80.776 75.6981C82.0019 73.8634 82.6562 71.7065 82.6562 69.5H79.4687C79.4687 71.076 79.0013 72.6167 78.1257 73.9272C77.2501 75.2376 76.0055 76.259 74.5494 76.8621C73.0933 77.4653 71.4911 77.6231 69.9453 77.3156C68.3995 77.0081 66.9796 76.2492 65.8652 75.1347C64.7507 74.0203 63.9918 72.6004 63.6843 71.0546C63.3768 69.5088 63.5346 67.9066 64.1378 66.4505C64.7409 64.9944 65.7623 63.7498 67.0727 62.8742C68.3832 61.9986 69.9239 61.5312 71.4999 61.5312V58.3437Z" fill="white"/>
<defs>
<filter id="filter0_d_135_380" x="0" y="0" width="143" height="143" filterUnits="userSpaceOnUse" color-interpolation-filters="sRGB">
<feFlood flood-opacity="0" result="BackgroundImageFix"/>
<feColorMatrix in="SourceAlpha" type="matrix" values="0 0 0 0 0 0 0 0 0 0 0 0 0 0 0 0 0 0 127 0" result="hardAlpha"/>
<feMorphology radius="1" operator="dilate" in="SourceAlpha" result="effect1_dropShadow_135_380"/>
<feOffset dy="2"/>
<feGaussianBlur stdDeviation="12.5"/>
<feComposite in2="hardAlpha" operator="out"/>
<feColorMatrix type="matrix" values="0 0 0 0 0 0 0 0 0 0 0 0 0 0 0 0 0 0 0.25 0"/>
<feBlend mode="normal" in2="BackgroundImageFix" result="effect1_dropShadow_135_380"/>
<feBlend mode="normal" in="SourceGraphic" in2="effect1_dropShadow_135_380" result="shape"/>
</filter>
</defs>
</svg>
