<svg width="80" height="80" viewBox="0 0 80 80" fill="none" xmlns="http://www.w3.org/2000/svg">
<circle cx="40" cy="40" r="40" fill="#5D67DE"/>
<path d="M50.4997 22.9374C50.5002 22.6775 50.4235 22.4233 50.2793 22.207C50.1351 21.9907 49.9299 21.8221 49.6898 21.7226C49.4497 21.6231 49.1854 21.5971 48.9305 21.6479C48.6756 21.6987 48.4415 21.8241 48.258 22.0082L43.008 27.2582C42.8862 27.3803 42.7896 27.5252 42.7239 27.6846C42.6581 27.8441 42.6244 28.0149 42.6247 28.1874V35.519L40.6796 37.4615C40.2905 37.3583 39.8829 37.3457 39.4881 37.4248C39.0934 37.5039 38.7221 37.6726 38.4028 37.9178C38.0835 38.1631 37.8248 38.4783 37.6466 38.8393C37.4683 39.2002 37.3753 39.5973 37.3747 39.9999C37.3749 40.3735 37.4548 40.7427 37.6091 41.0829C37.7634 41.4232 37.9885 41.7265 38.2695 41.9728C38.5504 42.219 38.8807 42.4024 39.2382 42.5108C39.5957 42.6192 39.9722 42.65 40.3426 42.6012C40.7129 42.5524 41.0686 42.4251 41.3859 42.2279C41.7031 42.0306 41.9746 41.7679 42.1822 41.4573C42.3898 41.1467 42.5287 40.7954 42.5896 40.4268C42.6505 40.0582 42.6321 39.6809 42.5355 39.32L44.4806 37.3749H51.8122C51.9847 37.3752 52.1555 37.3415 52.315 37.2758C52.4744 37.21 52.6194 37.1135 52.7415 36.9917L57.9915 31.7417C58.1755 31.5581 58.3009 31.324 58.3517 31.0691C58.4026 30.8142 58.3766 30.5499 58.277 30.3098C58.1775 30.0697 58.0089 29.8645 57.7926 29.7204C57.5764 29.5762 57.3221 29.4994 57.0622 29.4999H50.4997V22.9374ZM55.6027 37.8422C56.0544 41.1107 55.4681 44.4386 53.9267 47.356C52.3852 50.2735 49.9664 52.6331 47.0117 54.1019C44.057 55.5706 40.7156 56.0743 37.4592 55.5418C34.2028 55.0093 31.1959 53.4675 28.863 51.1341C26.53 48.8006 24.9888 45.7934 24.4569 42.537C23.9251 39.2805 24.4294 35.9392 25.8987 32.9848C27.368 30.0303 29.7281 27.612 32.6459 26.0711C35.5636 24.5302 38.8916 23.9446 42.1601 24.3969L41.1547 25.4023C40.7887 25.7679 40.4983 26.202 40.3001 26.6799C40.1019 27.1578 39.9998 27.6701 39.9997 28.1874C37.6634 28.1874 35.3796 28.8802 33.437 30.1782C31.4945 31.4761 29.9805 33.321 29.0864 35.4795C28.1923 37.6379 27.9584 40.013 28.4142 42.3044C28.87 44.5958 29.995 46.7006 31.647 48.3526C33.299 50.0046 35.4038 51.1296 37.6952 51.5854C39.9866 52.0412 42.3617 51.8073 44.5202 50.9132C46.6786 50.0192 48.5235 48.5051 49.8215 46.5626C51.1194 44.62 51.8122 42.3362 51.8122 39.9999C52.8562 39.999 53.857 39.5835 54.5947 38.8449L55.6027 37.8422ZM39.9997 30.8124C38.1826 30.8124 36.4063 31.3512 34.8954 32.3608C33.3845 33.3703 32.207 34.8052 31.5116 36.484C30.8162 38.1628 30.6343 40.0101 30.9888 41.7923C31.3433 43.5745 32.2183 45.2116 33.5032 46.4965C34.7881 47.7813 36.4251 48.6564 38.2073 49.0109C39.9895 49.3654 41.8368 49.1834 43.5156 48.4881C45.1944 47.7927 46.6293 46.6151 47.6388 45.1042C48.6484 43.5933 49.1872 41.817 49.1872 39.9999H45.5673L45.2392 40.328C45.1761 41.3365 44.8233 42.3053 44.2232 43.1182C43.6231 43.9311 42.8012 44.5536 41.856 44.9109C40.9109 45.2682 39.8827 45.3452 38.8949 45.1327C37.9071 44.9201 37.0016 44.4269 36.2872 43.7125C35.5727 42.998 35.0796 42.0925 34.867 41.1047C34.6544 40.1169 34.7314 39.0887 35.0887 38.1436C35.446 37.1984 36.0685 36.3765 36.8814 35.7764C37.6943 35.1763 38.6631 34.8235 39.6716 34.7604L39.9997 34.4323V30.8124Z" fill="white"/>
</svg>
