<svg width="101" height="65" viewBox="0 0 101 65" fill="none" xmlns="http://www.w3.org/2000/svg">
<path d="M42.8111 46.5449C47.8431 44.2451 51.9415 40.2786 54.4241 35.3056C56.9067 30.3325 57.6238 24.6529 56.456 19.2122C55.2883 13.7714 52.306 8.89758 48.0057 5.40203C43.7054 1.90648 38.3465 3.00751e-05 32.8208 3.55832e-10C27.2952 -3.00744e-05 21.9362 1.90636 17.6359 5.40186C13.3356 8.89737 10.3533 13.7711 9.18543 19.2119C8.01757 24.6527 8.73461 30.3323 11.2172 35.3054C13.6998 40.2784 17.7981 44.245 22.8301 46.5448C13.7177 48.936 5.74109 54.5024 0.316051 62.256C0.185039 62.4428 0.0918745 62.6538 0.0418883 62.877C-0.00809781 63.1001 -0.0139252 63.3309 0.0247399 63.5563C0.063405 63.7817 0.145804 63.9972 0.267222 64.1905C0.38864 64.3838 0.546695 64.551 0.732344 64.6827C0.917993 64.8144 1.12759 64.9079 1.34915 64.9579C1.57071 65.0079 1.79988 65.0134 2.02355 64.9741C2.24722 64.9348 2.46101 64.8514 2.65267 64.7288C2.84433 64.6062 3.01011 64.4467 3.14053 64.2594C6.48802 59.4623 10.9321 55.5471 16.0976 52.8442C21.2631 50.1413 26.9984 48.7302 32.8191 48.73C38.6398 48.7298 44.3752 50.1405 49.5409 52.843C54.7065 55.5455 59.1509 59.4605 62.4988 64.2573C62.763 64.6333 63.1646 64.8884 63.6153 64.9666C64.066 65.0448 64.5291 64.9398 64.903 64.6745C65.2769 64.4092 65.5312 64.0053 65.6099 63.5515C65.6887 63.0976 65.5856 62.6309 65.3232 62.2535C59.8982 54.5012 51.9224 48.9358 42.8111 46.5449ZM12.0937 24.3696C12.0937 20.2399 13.3093 16.2029 15.5868 12.7691C17.8643 9.33534 21.1014 6.65905 24.8887 5.07866C28.6761 3.49828 32.8436 3.08478 36.8642 3.89045C40.8848 4.69612 44.578 6.68479 47.4767 9.60496C50.3755 12.5251 52.3495 16.2457 53.1493 20.296C53.949 24.3464 53.5386 28.5448 51.9698 32.3602C50.401 36.1756 47.7444 39.4366 44.3359 41.731C40.9273 44.0253 36.92 45.25 32.8206 45.25C27.3254 45.2437 22.057 43.0418 18.1713 39.1273C14.2856 35.2129 12.0999 29.9055 12.0937 24.3696ZM100.108 64.6781C99.9222 64.8097 99.7128 64.9033 99.4915 64.9533C99.2702 65.0034 99.0412 65.0091 98.8177 64.97C98.5942 64.9309 98.3805 64.8479 98.1889 64.7256C97.9973 64.6033 97.8314 64.4442 97.7008 64.2573C94.3491 59.4647 89.9041 55.553 84.7396 52.8509C79.575 50.1489 73.842 48.7357 68.0225 48.73C67.5644 48.73 67.1251 48.5467 66.8011 48.2204C66.4772 47.8941 66.2952 47.4515 66.2952 46.99C66.2952 46.5285 66.4772 46.0859 66.8011 45.7596C67.1251 45.4333 67.5644 45.25 68.0225 45.25C70.9824 45.2469 73.9074 44.6052 76.6006 43.3681C79.2937 42.131 81.6927 40.3271 83.6359 38.0779C85.5792 35.8287 87.0217 33.1862 87.8664 30.3283C88.711 27.4705 88.9383 24.4635 88.5329 21.5098C88.1275 18.556 87.0988 15.724 85.5161 13.2043C83.9333 10.6845 81.8332 8.53554 79.357 6.90187C76.8808 5.2682 74.086 4.18776 71.1607 3.73325C68.2353 3.27873 65.2473 3.46068 62.3976 4.26686C62.179 4.3294 61.9503 4.34788 61.7247 4.32126C61.499 4.29463 61.2808 4.22342 61.0825 4.1117C60.8842 3.99997 60.7098 3.84994 60.5691 3.67018C60.4285 3.49043 60.3244 3.28449 60.2629 3.06416C60.2014 2.84382 60.1836 2.61343 60.2106 2.38617C60.2376 2.15891 60.3089 1.93926 60.4203 1.73978C60.5317 1.54031 60.6811 1.36494 60.8599 1.22372C61.0387 1.0825 61.2434 0.978196 61.4623 0.916794C67.3306 -0.750009 73.6073 -0.121939 79.0355 2.67522C84.4636 5.47239 88.6425 10.2321 90.7351 16.0012C92.8277 21.7704 92.6797 28.1229 90.3206 33.7867C87.9614 39.4506 83.5655 44.0075 78.013 46.5449C87.1243 48.9358 95.1002 54.5012 100.525 62.2535C100.789 62.6308 100.893 63.0982 100.815 63.5529C100.737 64.0076 100.482 64.4124 100.108 64.6781Z" fill="#00BABF"/>
</svg>
